ffmpeg started on 2026-03-26 at 13:47:36
Report written to "D:\Convert\FFMetrics\reports\psnr_report-6.txt"
Log level: 32
Command line:
ffmpeg -hide_banner -nostdin -r 24000/1001 -i "F:\\Convert\\files\\[DC] Make Heroine ga Oosugiru - 07_Telegram_HEVC(155).mkv" -r 24000/1001 -i "F:\\Convert\\files\\[DC] Make Heroine ga Oosugiru - 07_Telegram.mp4" -lavfi "[0:v]settb=AVTB,setpts=PTS-STARTPTS,format=pix_fmts=yuv420p10le,fps=24000/1001,scale=1920:1080:flags=lanczos:param0=3:out_range=limited:out_color_matrix=bt709:out_chroma_loc=left,setsar=1/1,setdar=(1920/1080)*(1/1),colorspace=format=yuv420p10:range=tv:primaries=bt709:trc=bt709:space=bt709:fast=0[main];[1:v]settb=AVTB,setpts=PTS-STARTPTS,format=pix_fmts=yuv420p,fps=24000/1001,scale=1920:1080:flags=lanczos:param0=3:out_range=limited:out_color_matrix=bt709:out_chroma_loc=left,setsar=1/1,setdar=(1920/1080)*(1/1),colorspace=format=yuv420p:range=tv:primaries=bt709:trc=bt709:space=bt709:fast=0[ref];[main][ref]psnr=eof_action=endall:stats_file='D\\:/Convert/FFMetrics/logs/psnr_logfile-6.txt'" -f null -
Input #0, matroska,webm, from 'F:\Convert\files\[DC] Make Heroine ga Oosugiru - 07_Telegram_HEVC(155).mkv':
  Metadata:
    COMPATIBLE_BRANDS: isomiso2avc1mp41
    MAJOR_BRAND     : isom
    MINOR_VERSION   : 512
    ENCODER         : Lavf61.7.100
  Duration: 00:24:06.79, start: -0.021000, bitrate: 982 kb/s
  Stream #0:0: Video: hevc (Main 10), yuv420p10le(tv, bt709, progressive), 1920x1080 [SAR 1:1 DAR 16:9], 23.98 fps, 23.98 tbr, 1k tbn (default)
      Metadata:
        HANDLER_NAME    : VideoHandler
        VENDOR_ID       : [0][0][0][0]
        ENCODER         : Lavc61.19.100 libx265
        BPS             : 785093
        DURATION        : 00:24:06.569708333
        NUMBER_OF_FRAMES: 34683
        NUMBER_OF_BYTES : 141961525
        _STATISTICS_WRITING_APP: mkvpropedit v94.0 ('Initiate') 64-bit
        _STATISTICS_WRITING_DATE_UTC: 2026-03-26 10:08:21
        _STATISTICS_TAGS: BPS DURATION NUMBER_OF_FRAMES NUMBER_OF_BYTES
  Stream #0:1: Audio: aac (LC), 48000 Hz, stereo, fltp (default)
      Metadata:
        HANDLER_NAME    : SoundHandler
        VENDOR_ID       : [0][0][0][0]
        ENCODER         : Lavc61.19.100 aac
        BPS             : 193194
        DURATION        : 00:24:06.784000000
        NUMBER_OF_FRAMES: 67819
        NUMBER_OF_BYTES : 34938755
        _STATISTICS_WRITING_APP: mkvpropedit v94.0 ('Initiate') 64-bit
        _STATISTICS_WRITING_DATE_UTC: 2026-03-26 10:08:21
        _STATISTICS_TAGS: BPS DURATION NUMBER_OF_FRAMES NUMBER_OF_BYTES
Input #1, mov,mp4,m4a,3gp,3g2,mj2, from 'F:\Convert\files\[DC] Make Heroine ga Oosugiru - 07_Telegram.mp4':
  Metadata:
    major_brand     : isom
    minor_version   : 512
    compatible_brands: isomiso2avc1mp41
    encoder         : Lavf60.16.100
  Duration: 00:24:06.74, start: 0.000000, bitrate: 3764 kb/s
  Stream #1:0[0x1](und): Video: h264 (High) (avc1 / 0x31637661), yuv420p(tv, bt709, progressive), 1920x1080 [SAR 1:1 DAR 16:9], 3616 kb/s, 23.98 fps, 23.98 tbr, 24k tbn (default)
      Metadata:
        handler_name    : VideoHandler
        vendor_id       : [0][0][0][0]
        encoder         : Lavc60.31.102 h264_qsv
  Stream #1:1[0x2](und): Audio: aac (HE-AACv2) (mp4a / 0x6134706D), 48000 Hz, stereo, fltp, 144 kb/s (default)
      Metadata:
        handler_name    : SoundHandler
        vendor_id       : [0][0][0][0]
Stream mapping:
  Stream #0:0 (hevc) -> settb:default
  Stream #1:0 (h264) -> settb:default
  psnr:default -> Stream #0:0 (wrapped_avframe)
  Stream #0:1 -> #0:1 (aac (native) -> pcm_s16le (native))
Output #0, null, to 'pipe:':
  Metadata:
    COMPATIBLE_BRANDS: isomiso2avc1mp41
    MAJOR_BRAND     : isom
    MINOR_VERSION   : 512
    encoder         : Lavf61.7.100
  Stream #0:0: Video: wrapped_avframe, yuv420p10le(tv, bt709, progressive), 1920x1080 [SAR 1:1 DAR 16:9], q=2-31, 200 kb/s, 23.98 fps, 23.98 tbn
      Metadata:
        encoder         : Lavc61.19.100 wrapped_avframe
  Stream #0:1: Audio: pcm_s16le, 48000 Hz, stereo, s16, 1536 kb/s (default)
      Metadata:
        HANDLER_NAME    : SoundHandler
        VENDOR_ID       : [0][0][0][0]
        _STATISTICS_TAGS: BPS DURATION NUMBER_OF_FRAMES NUMBER_OF_BYTES
        BPS             : 193194
        DURATION        : 00:24:06.784000000
        NUMBER_OF_FRAMES: 67819
        NUMBER_OF_BYTES : 34938755
        _STATISTICS_WRITING_APP: mkvpropedit v94.0 ('Initiate') 64-bit
        _STATISTICS_WRITING_DATE_UTC: 2026-03-26 10:08:21
        encoder         : Lavc61.19.100 pcm_s16le
frame=  139 fps=0.0 q=-0.0 size=N/A time=00:00:05.79 bitrate=N/A speed=11.4x    frame=  332 fps=325 q=-0.0 size=N/A time=00:00:13.84 bitrate=N/A speed=13.6x    frame=  546 fps=353 q=-0.0 size=N/A time=00:00:22.77 bitrate=N/A speed=14.7x    frame=  753 fps=366 q=-0.0 size=N/A time=00:00:31.40 bitrate=N/A speed=15.2x    frame=  923 fps=359 q=-0.0 size=N/A time=00:00:38.49 bitrate=N/A speed=  15x    frame= 1075 fps=349 q=-0.0 size=N/A time=00:00:44.83 bitrate=N/A speed=14.5x    frame= 1240 fps=343 q=-0.0 size=N/A time=00:00:51.71 bitrate=N/A speed=14.3x    frame= 1409 fps=342 q=-0.0 size=N/A time=00:00:58.76 bitrate=N/A speed=14.3x    frame= 1551 fps=335 q=-0.0 size=N/A time=00:01:04.68 bitrate=N/A speed=  14x    frame= 1710 fps=332 q=-0.0 size=N/A time=00:01:11.32 bitrate=N/A speed=13.9x    frame= 1887 fps=333 q=-0.0 size=N/A time=00:01:18.70 bitrate=N/A speed=13.9x    frame= 2049 fps=331 q=-0.0 size=N/A time=00:01:25.46 bitrate=N/A speed=13.8x    frame= 2164 fps=323 q=-0.0 size=N/A time=00:01:30.25 bitrate=N/A speed=13.5x    frame= 2325 fps=322 q=-0.0 size=N/A time=00:01:36.97 bitrate=N/A speed=13.4x    frame= 2465 fps=319 q=-0.0 size=N/A time=00:01:42.81 bitrate=N/A speed=13.3x    frame= 2602 fps=316 q=-0.0 size=N/A time=00:01:48.52 bitrate=N/A speed=13.2x    frame= 2782 fps=318 q=-0.0 size=N/A time=00:01:56.03 bitrate=N/A speed=13.2x    frame= 2964 fps=319 q=-0.0 size=N/A time=00:02:03.62 bitrate=N/A speed=13.3x    frame= 3157 fps=322 q=-0.0 size=N/A time=00:02:11.67 bitrate=N/A speed=13.4x    frame= 3357 fps=326 q=-0.0 size=N/A time=00:02:20.01 bitrate=N/A speed=13.6x    frame= 3560 fps=329 q=-0.0 size=N/A time=00:02:28.48 bitrate=N/A speed=13.7x    frame= 3766 fps=332 q=-0.0 size=N/A time=00:02:37.07 bitrate=N/A speed=13.8x    frame= 3964 fps=334 q=-0.0 size=N/A time=00:02:45.33 bitrate=N/A speed=  14x    frame= 4174 fps=337 q=-0.0 size=N/A time=00:02:54.09 bitrate=N/A speed=14.1x    frame= 4372 fps=339 q=-0.0 size=N/A time=00:03:02.34 bitrate=N/A speed=14.1x    frame= 4568 fps=341 q=-0.0 size=N/A time=00:03:10.52 bitrate=N/A speed=14.2x    frame= 4769 fps=343 q=-0.0 size=N/A time=00:03:18.90 bitrate=N/A speed=14.3x    frame= 4973 fps=344 q=-0.0 size=N/A time=00:03:27.41 bitrate=N/A speed=14.4x    frame= 5173 fps=346 q=-0.0 size=N/A time=00:03:35.75 bitrate=N/A speed=14.4x    frame= 5369 fps=347 q=-0.0 size=N/A time=00:03:43.93 bitrate=N/A speed=14.5x    frame= 5571 fps=349 q=-0.0 size=N/A time=00:03:52.35 bitrate=N/A speed=14.5x    frame= 5763 fps=349 q=-0.0 size=N/A time=00:04:00.36 bitrate=N/A speed=14.6x    frame= 5957 fps=350 q=-0.0 size=N/A time=00:04:08.45 bitrate=N/A speed=14.6x    frame= 6163 fps=352 q=-0.0 size=N/A time=00:04:17.04 bitrate=N/A speed=14.7x    frame= 6358 fps=352 q=-0.0 size=N/A time=00:04:25.18 bitrate=N/A speed=14.7x    frame= 6550 fps=353 q=-0.0 size=N/A time=00:04:33.18 bitrate=N/A speed=14.7x    frame= 6756 fps=354 q=-0.0 size=N/A time=00:04:41.78 bitrate=N/A speed=14.8x    frame= 6958 fps=355 q=-0.0 size=N/A time=00:04:50.20 bitrate=N/A speed=14.8x    frame= 7148 fps=356 q=-0.0 size=N/A time=00:04:58.13 bitrate=N/A speed=14.8x    frame= 7345 fps=356 q=-0.0 size=N/A time=00:05:06.34 bitrate=N/A speed=14.9x    frame= 7533 fps=356 q=-0.0 size=N/A time=00:05:14.18 bitrate=N/A speed=14.9x    frame= 7721 fps=357 q=-0.0 size=N/A time=00:05:22.03 bitrate=N/A speed=14.9x    frame= 7906 fps=357 q=-0.0 size=N/A time=00:05:29.74 bitrate=N/A speed=14.9x    frame= 8112 fps=358 q=-0.0 size=N/A time=00:05:38.33 bitrate=N/A speed=14.9x    frame= 8300 fps=358 q=-0.0 size=N/A time=00:05:46.17 bitrate=N/A speed=14.9x    frame= 8494 fps=358 q=-0.0 size=N/A time=00:05:54.27 bitrate=N/A speed=14.9x    frame= 8699 fps=359 q=-0.0 size=N/A time=00:06:02.82 bitrate=N/A speed=  15x    frame= 8892 fps=359 q=-0.0 size=N/A time=00:06:10.87 bitrate=N/A speed=  15x    frame= 9085 fps=360 q=-0.0 size=N/A time=00:06:18.92 bitrate=N/A speed=  15x    frame= 9284 fps=360 q=-0.0 size=N/A time=00:06:27.22 bitrate=N/A speed=  15x    frame= 9485 fps=361 q=-0.0 size=N/A time=00:06:35.60 bitrate=N/A speed=  15x    frame= 9680 fps=361 q=-0.0 size=N/A time=00:06:43.73 bitrate=N/A speed=15.1x    frame= 9878 fps=362 q=-0.0 size=N/A time=00:06:51.99 bitrate=N/A speed=15.1x    frame=10078 fps=362 q=-0.0 size=N/A time=00:07:00.33 bitrate=N/A speed=15.1x    frame=10264 fps=362 q=-0.0 size=N/A time=00:07:08.09 bitrate=N/A speed=15.1x    frame=10456 fps=362 q=-0.0 size=N/A time=00:07:16.10 bitrate=N/A speed=15.1x    frame=10653 fps=362 q=-0.0 size=N/A time=00:07:24.31 bitrate=N/A speed=15.1x    frame=10843 fps=363 q=-0.0 size=N/A time=00:07:32.24 bitrate=N/A speed=15.1x    frame=11036 fps=363 q=-0.0 size=N/A time=00:07:40.29 bitrate=N/A speed=15.1x    frame=11228 fps=363 q=-0.0 size=N/A time=00:07:48.30 bitrate=N/A speed=15.1x    frame=11424 fps=363 q=-0.0 size=N/A time=00:07:56.47 bitrate=N/A speed=15.1x    frame=11624 fps=364 q=-0.0 size=N/A time=00:08:04.81 bitrate=N/A speed=15.2x    frame=11828 fps=364 q=-0.0 size=N/A time=00:08:13.32 bitrate=N/A speed=15.2x    frame=12026 fps=364 q=-0.0 size=N/A time=00:08:21.58 bitrate=N/A speed=15.2x    frame=12226 fps=365 q=-0.0 size=N/A time=00:08:29.92 bitrate=N/A speed=15.2x    frame=12421 fps=365 q=-0.0 size=N/A time=00:08:38.05 bitrate=N/A speed=15.2x    frame=12624 fps=365 q=-0.0 size=N/A time=00:08:46.52 bitrate=N/A speed=15.2x    frame=12825 fps=366 q=-0.0 size=N/A time=00:08:54.90 bitrate=N/A speed=15.3x    frame=13021 fps=366 q=-0.0 size=N/A time=00:09:03.08 bitrate=N/A speed=15.3x    frame=13208 fps=366 q=-0.0 size=N/A time=00:09:10.88 bitrate=N/A speed=15.3x    frame=13402 fps=366 q=-0.0 size=N/A time=00:09:18.97 bitrate=N/A speed=15.3x    frame=13598 fps=366 q=-0.0 size=N/A time=00:09:27.14 bitrate=N/A speed=15.3x    frame=13801 fps=366 q=-0.0 size=N/A time=00:09:35.61 bitrate=N/A speed=15.3x    frame=14000 fps=367 q=-0.0 size=N/A time=00:09:43.91 bitrate=N/A speed=15.3x    frame=14172 fps=366 q=-0.0 size=N/A time=00:09:51.09 bitrate=N/A speed=15.3x    frame=14372 fps=367 q=-0.0 size=N/A time=00:09:59.43 bitrate=N/A speed=15.3x    frame=14566 fps=367 q=-0.0 size=N/A time=00:10:07.52 bitrate=N/A speed=15.3x    frame=14760 fps=367 q=-0.0 size=N/A time=00:10:15.61 bitrate=N/A speed=15.3x    frame=14951 fps=367 q=-0.0 size=N/A time=00:10:23.58 bitrate=N/A speed=15.3x    frame=15122 fps=366 q=-0.0 size=N/A time=00:10:30.71 bitrate=N/A speed=15.3x    frame=15307 fps=366 q=-0.0 size=N/A time=00:10:38.42 bitrate=N/A speed=15.3x    frame=15496 fps=366 q=-0.0 size=N/A time=00:10:46.31 bitrate=N/A speed=15.3x    frame=15692 fps=366 q=-0.0 size=N/A time=00:10:54.48 bitrate=N/A speed=15.3x    frame=15888 fps=367 q=-0.0 size=N/A time=00:11:02.66 bitrate=N/A speed=15.3x    frame=16092 fps=367 q=-0.0 size=N/A time=00:11:11.17 bitrate=N/A speed=15.3x    frame=16286 fps=367 q=-0.0 size=N/A time=00:11:19.26 bitrate=N/A speed=15.3x    frame=16479 fps=367 q=-0.0 size=N/A time=00:11:27.31 bitrate=N/A speed=15.3x    frame=16675 fps=367 q=-0.0 size=N/A time=00:11:35.48 bitrate=N/A speed=15.3x    frame=16877 fps=368 q=-0.0 size=N/A time=00:11:43.91 bitrate=N/A speed=15.3x    frame=17071 fps=368 q=-0.0 size=N/A time=00:11:52.00 bitrate=N/A speed=15.3x    frame=17268 fps=368 q=-0.0 size=N/A time=00:12:00.21 bitrate=N/A speed=15.3x    frame=17467 fps=368 q=-0.0 size=N/A time=00:12:08.51 bitrate=N/A speed=15.3x    frame=17650 fps=368 q=-0.0 size=N/A time=00:12:16.15 bitrate=N/A speed=15.3x    frame=17844 fps=368 q=-0.0 size=N/A time=00:12:24.24 bitrate=N/A speed=15.3x    frame=18045 fps=368 q=-0.0 size=N/A time=00:12:32.62 bitrate=N/A speed=15.4x    frame=18238 fps=368 q=-0.0 size=N/A time=00:12:40.67 bitrate=N/A speed=15.4x    frame=18421 fps=368 q=-0.0 size=N/A time=00:12:48.30 bitrate=N/A speed=15.4x    frame=18626 fps=368 q=-0.0 size=N/A time=00:12:56.85 bitrate=N/A speed=15.4x    frame=18827 fps=369 q=-0.0 size=N/A time=00:13:05.24 bitrate=N/A speed=15.4x    frame=19025 fps=369 q=-0.0 size=N/A time=00:13:13.50 bitrate=N/A speed=15.4x    frame=19224 fps=369 q=-0.0 size=N/A time=00:13:21.80 bitrate=N/A speed=15.4x    frame=19435 fps=369 q=-0.0 size=N/A time=00:13:30.60 bitrate=N/A speed=15.4x    frame=19629 fps=369 q=-0.0 size=N/A time=00:13:38.69 bitrate=N/A speed=15.4x    frame=19822 fps=369 q=-0.0 size=N/A time=00:13:46.74 bitrate=N/A speed=15.4x    frame=20027 fps=370 q=-0.0 size=N/A time=00:13:55.29 bitrate=N/A speed=15.4x    frame=20227 fps=370 q=-0.0 size=N/A time=00:14:03.63 bitrate=N/A speed=15.4x    frame=20423 fps=370 q=-0.0 size=N/A time=00:14:11.80 bitrate=N/A speed=15.4x    frame=20596 fps=370 q=-0.0 size=N/A time=00:14:19.02 bitrate=N/A speed=15.4x    frame=20775 fps=369 q=-0.0 size=N/A time=00:14:26.49 bitrate=N/A speed=15.4x    frame=20975 fps=370 q=-0.0 size=N/A time=00:14:34.83 bitrate=N/A speed=15.4x    frame=21173 fps=370 q=-0.0 size=N/A time=00:14:43.09 bitrate=N/A speed=15.4x    frame=21366 fps=370 q=-0.0 size=N/A time=00:14:51.14 bitrate=N/A speed=15.4x    frame=21568 fps=370 q=-0.0 size=N/A time=00:14:59.56 bitrate=N/A speed=15.4x    frame=21771 fps=370 q=-0.0 size=N/A time=00:15:08.03 bitrate=N/A speed=15.4x    frame=21972 fps=370 q=-0.0 size=N/A time=00:15:16.41 bitrate=N/A speed=15.4x    frame=22178 fps=371 q=-0.0 size=N/A time=00:15:25.00 bitrate=N/A speed=15.5x    frame=22387 fps=371 q=-0.0 size=N/A time=00:15:33.72 bitrate=N/A speed=15.5x    frame=22586 fps=371 q=-0.0 size=N/A time=00:15:42.02 bitrate=N/A speed=15.5x    frame=22782 fps=371 q=-0.0 size=N/A time=00:15:50.19 bitrate=N/A speed=15.5x    frame=22980 fps=371 q=-0.0 size=N/A time=00:15:58.45 bitrate=N/A speed=15.5x    frame=23178 fps=371 q=-0.0 size=N/A time=00:16:06.71 bitrate=N/A speed=15.5x    frame=23378 fps=371 q=-0.0 size=N/A time=00:16:15.05 bitrate=N/A speed=15.5x    frame=23582 fps=372 q=-0.0 size=N/A time=00:16:23.56 bitrate=N/A speed=15.5x    frame=23793 fps=372 q=-0.0 size=N/A time=00:16:32.36 bitrate=N/A speed=15.5x    frame=23986 fps=372 q=-0.0 size=N/A time=00:16:40.41 bitrate=N/A speed=15.5x    frame=24169 fps=372 q=-0.0 size=N/A time=00:16:48.04 bitrate=N/A speed=15.5x    frame=24366 fps=372 q=-0.0 size=N/A time=00:16:56.26 bitrate=N/A speed=15.5x    frame=24578 fps=372 q=-0.0 size=N/A time=00:17:05.10 bitrate=N/A speed=15.5x    frame=24778 fps=372 q=-0.0 size=N/A time=00:17:13.44 bitrate=N/A speed=15.5x    frame=24974 fps=372 q=-0.0 size=N/A time=00:17:21.62 bitrate=N/A speed=15.5x    frame=25189 fps=373 q=-0.0 size=N/A time=00:17:30.59 bitrate=N/A speed=15.5x    frame=25385 fps=373 q=-0.0 size=N/A time=00:17:38.76 bitrate=N/A speed=15.5x    frame=25590 fps=373 q=-0.0 size=N/A time=00:17:47.31 bitrate=N/A speed=15.5x    frame=25789 fps=373 q=-0.0 size=N/A time=00:17:55.61 bitrate=N/A speed=15.6x    frame=25989 fps=373 q=-0.0 size=N/A time=00:18:03.95 bitrate=N/A speed=15.6x    frame=26187 fps=373 q=-0.0 size=N/A time=00:18:12.21 bitrate=N/A speed=15.6x    frame=26393 fps=373 q=-0.0 size=N/A time=00:18:20.80 bitrate=N/A speed=15.6x    frame=26590 fps=373 q=-0.0 size=N/A time=00:18:29.02 bitrate=N/A speed=15.6x    frame=26787 fps=373 q=-0.0 size=N/A time=00:18:37.24 bitrate=N/A speed=15.6x    frame=26982 fps=373 q=-0.0 size=N/A time=00:18:45.37 bitrate=N/A speed=15.6x    frame=27168 fps=373 q=-0.0 size=N/A time=00:18:53.13 bitrate=N/A speed=15.6x    frame=27352 fps=373 q=-0.0 size=N/A time=00:19:00.80 bitrate=N/A speed=15.6x    frame=27540 fps=373 q=-0.0 size=N/A time=00:19:08.64 bitrate=N/A speed=15.6x    frame=27741 fps=373 q=-0.0 size=N/A time=00:19:17.03 bitrate=N/A speed=15.6x    frame=27933 fps=373 q=-0.0 size=N/A time=00:19:25.03 bitrate=N/A speed=15.6x    frame=28136 fps=373 q=-0.0 size=N/A time=00:19:33.50 bitrate=N/A speed=15.6x    frame=28334 fps=374 q=-0.0 size=N/A time=00:19:41.76 bitrate=N/A speed=15.6x    frame=28529 fps=374 q=-0.0 size=N/A time=00:19:49.89 bitrate=N/A speed=15.6x    frame=28719 fps=373 q=-0.0 size=N/A time=00:19:57.82 bitrate=N/A speed=15.6x    frame=28893 fps=373 q=-0.0 size=N/A time=00:20:05.07 bitrate=N/A speed=15.6x    frame=29064 fps=373 q=-0.0 size=N/A time=00:20:12.21 bitrate=N/A speed=15.6x    frame=29255 fps=373 q=-0.0 size=N/A time=00:20:20.17 bitrate=N/A speed=15.6x    frame=29435 fps=373 q=-0.0 size=N/A time=00:20:27.68 bitrate=N/A speed=15.5x    frame=29601 fps=373 q=-0.0 size=N/A time=00:20:34.60 bitrate=N/A speed=15.5x    frame=29779 fps=372 q=-0.0 size=N/A time=00:20:42.03 bitrate=N/A speed=15.5x    frame=29958 fps=372 q=-0.0 size=N/A time=00:20:49.49 bitrate=N/A speed=15.5x    frame=30128 fps=372 q=-0.0 size=N/A time=00:20:56.58 bitrate=N/A speed=15.5x    frame=30321 fps=372 q=-0.0 size=N/A time=00:21:04.63 bitrate=N/A speed=15.5x    frame=30509 fps=372 q=-0.0 size=N/A time=00:21:12.47 bitrate=N/A speed=15.5x    frame=30693 fps=372 q=-0.0 size=N/A time=00:21:20.15 bitrate=N/A speed=15.5x    frame=30899 fps=372 q=-0.0 size=N/A time=00:21:28.74 bitrate=N/A speed=15.5x    frame=31097 fps=372 q=-0.0 size=N/A time=00:21:37.00 bitrate=N/A speed=15.5x    frame=31293 fps=372 q=-0.0 size=N/A time=00:21:45.17 bitrate=N/A speed=15.5x    frame=31479 fps=372 q=-0.0 size=N/A time=00:21:52.93 bitrate=N/A speed=15.5x    frame=31676 fps=372 q=-0.0 size=N/A time=00:22:01.15 bitrate=N/A speed=15.5x    frame=31863 fps=372 q=-0.0 size=N/A time=00:22:08.95 bitrate=N/A speed=15.5x    frame=32046 fps=372 q=-0.0 size=N/A time=00:22:16.58 bitrate=N/A speed=15.5x    frame=32251 fps=372 q=-0.0 size=N/A time=00:22:25.13 bitrate=N/A speed=15.5x    frame=32449 fps=372 q=-0.0 size=N/A time=00:22:33.39 bitrate=N/A speed=15.5x    frame=32638 fps=372 q=-0.0 size=N/A time=00:22:41.27 bitrate=N/A speed=15.5x    frame=32781 fps=372 q=-0.0 size=N/A time=00:22:47.24 bitrate=N/A speed=15.5x    frame=32948 fps=371 q=-0.0 size=N/A time=00:22:54.20 bitrate=N/A speed=15.5x    frame=33130 fps=371 q=-0.0 size=N/A time=00:23:01.79 bitrate=N/A speed=15.5x    frame=33320 fps=371 q=-0.0 size=N/A time=00:23:09.72 bitrate=N/A speed=15.5x    frame=33487 fps=371 q=-0.0 size=N/A time=00:23:16.68 bitrate=N/A speed=15.5x    frame=33642 fps=370 q=-0.0 size=N/A time=00:23:23.15 bitrate=N/A speed=15.5x    frame=33777 fps=370 q=-0.0 size=N/A time=00:23:28.78 bitrate=N/A speed=15.4x    frame=33914 fps=369 q=-0.0 size=N/A time=00:23:34.49 bitrate=N/A speed=15.4x    frame=34074 fps=369 q=-0.0 size=N/A time=00:23:41.16 bitrate=N/A speed=15.4x    frame=34236 fps=369 q=-0.0 size=N/A time=00:23:47.92 bitrate=N/A speed=15.4x    frame=34366 fps=368 q=-0.0 size=N/A time=00:23:53.34 bitrate=N/A speed=15.3x    frame=34505 fps=367 q=-0.0 size=N/A time=00:23:59.14 bitrate=N/A speed=15.3x    [Parsed_psnr_16 @ 0000014fe546e780] PSNR y:48.952892 u:50.331591 v:50.383131 average:49.372506 min:38.014906 max:inf
[out#0/null @ 0000014fd7f32fc0] video:14903KiB audio:271276KiB subtitle:0KiB other streams:0KiB global headers:0KiB muxing overhead: unknown
frame=34683 fps=367 q=-0.0 Lsize=N/A time=00:24:06.57 bitrate=N/A speed=15.3x    
